{"accessors" : [{"bufferView" : 0, "byteOffset" : 0, "componentType" : 5123, "count" : 5760, "type" : "SCALAR", "max" : [5759], "min" : [0]}, {"bufferView" : 1, "byteOffset" : 0, "componentType" : 5126, "count" : 5760, "type" : "VEC3", "max" : [184287.8125, 184291.8125, 184295.8125], "min" : [-0.18353110551834106, 3.8164689540863037, 7.816468715667725]}, {"bufferView" : 1, "byteOffset" : 12, "componentType" : 5126, "count" : 5760, "type" : "VEC3", "max" : [184299.8125, 184303.8125, 184307.8125], "min" : [11.816469192504883, 15.816469192504883, 19.816469192504883]}, {"bufferView" : 1, "byteOffset" : 24, "componentType" : 5126, "count" : 5760, "type" : "VEC2", "max" : [184311.8125, 184315.8125], "min" : [23.816469192504883, 27.816469192504883]}, {"bufferView" : 0, "byteOffset" : 11520, "componentType" : 5123, "count" : 2868, "type" : "SCALAR", "max" : [2867], "min" : [0]}, {"bufferView" : 2, "byteOffset" : 0, "componentType" : 5126, "count" : 2868, "type" : "VEC3", "max" : [91743.875, 91747.875, 91751.875], "min" : [-0.1229851022362709, 3.8770148754119873, 7.877015113830566]}, {"bufferView" : 2, "byteOffset" : 12, "componentType" : 5126, "count" : 2868, "type" : "VEC3", "max" : [91755.875, 91759.875, 91763.875], "min" : [11.877015113830566, 15.877015113830566, 19.87701416015625]}, {"bufferView" : 2, "byteOffset" : 24, "componentType" : 5126, "count" : 2868, "type" : "VEC2", "max" : [91767.875, 91771.875], "min" : [23.87701416015625, 27.87701416015625]}, {"bufferView" : 0, "byteOffset" : 17256, "componentType" : 5123, "count" : 5760, "type" : "SCALAR", "max" : [5759], "min" : [0]}, {"bufferView" : 3, "byteOffset" : 0, "componentType" : 5126, "count" : 5760, "type" : "VEC3", "max" : [184287.796875, 184291.796875, 184295.796875], "min" : [-0.1985986977815628, 3.801401376724243, 7.801401138305664]}, {"bufferView" : 3, "byteOffset" : 12, "componentType" : 5126, "count" : 5760, "type" : "VEC3", "max" : [184299.796875, 184303.796875, 184307.796875], "min" : [11.801401138305664, 15.801401138305664, 19.801401138305664]}, {"bufferView" : 3, "byteOffset" : 24, "componentType" : 5126, "count" : 5760, "type" : "VEC2", "max" : [184311.796875, 184315.796875], "min" : [23.801401138305664, 27.801401138305664]}, {"bufferView" : 0, "byteOffset" : 28776, "componentType" : 5123, "count" : 35118, "type" : "SCALAR", "max" : [35117], "min" : [0]}, {"bufferView" : 4, "byteOffset" : 0, "componentType" : 5126, "count" : 35118, "type" : "VEC3", "max" : [1123744.25, 1123748.25, 1123752.25], "min" : [0.23839020729064941, 4.23838996887207, 8.23838996887207]}, {"bufferView" : 4, "byteOffset" : 12, "componentType" : 5126, "count" : 35118, "type" : "VEC3", "max" : [1123756.25, 1123760.25, 1123764.25], "min" : [12.23838996887207, 16.23838996887207, 20.23838996887207]}, {"bufferView" : 4, "byteOffset" : 24, "componentType" : 5126, "count" : 35118, "type" : "VEC2", "max" : [1123768.25, 1123772.25], "min" : [24.23838996887207, 28.23838996887207]}, {"bufferView" : 0, "byteOffset" : 99012, "componentType" : 5123, "count" : 2880, "type" : "SCALAR", "max" : [2879], "min" : [0]}, {"bufferView" : 5, "byteOffset" : 0, "componentType" : 5126, "count" : 2880, "type" : "VEC3", "max" : [92128, 92132, 92136], "min" : [0, 4, 8]}, {"bufferView" : 5, "byteOffset" : 12, "componentType" : 5126, "count" : 2880, "type" : "VEC3", "max" : [92140, 92144, 92148], "min" : [12, 16, 20]}, {"bufferView" : 5, "byteOffset" : 24, "componentType" : 5126, "count" : 2880, "type" : "VEC2", "max" : [92152, 92156], "min" : [24, 28]}, {"bufferView" : 0, "byteOffset" : 104772, "componentType" : 5123, "count" : 12672, "type" : "SCALAR", "max" : [12671], "min" : [0]}, {"bufferView" : 6, "byteOffset" : 0, "componentType" : 5126, "count" : 12672, "type" : "VEC3", "max" : [405472, 405476, 405480], "min" : [0, 4, 8]}, {"bufferView" : 6, "byteOffset" : 12, "componentType" : 5126, "count" : 12672, "type" : "VEC3", "max" : [405484, 405488, 405492], "min" : [12, 16, 20]}, {"bufferView" : 6, "byteOffset" : 24, "componentType" : 5126, "count" : 12672, "type" : "VEC2", "max" : [405496, 405500], "min" : [24, 28]}, {"bufferView" : 0, "byteOffset" : 130116, "componentType" : 5123, "count" : 5760, "type" : "SCALAR", "max" : [5759], "min" : [0]}, {"bufferView" : 7, "byteOffset" : 0, "componentType" : 5126, "count" : 5760, "type" : "VEC3", "max" : [184288.5625, 184292.5625, 184296.5625], "min" : [0.5564156770706177, 4.556415557861328, 8.556415557861328]}, {"bufferView" : 7, "byteOffset" : 12, "componentType" : 5126, "count" : 5760, "type" : "VEC3", "max" : [184300.5625, 184304.5625, 184308.5625], "min" : [12.556415557861328, 16.556415557861328, 20.556415557861328]}, {"bufferView" : 7, "byteOffset" : 24, "componentType" : 5126, "count" : 5760, "type" : "VEC2", "max" : [184312.5625, 184316.5625], "min" : [24.556415557861328, 28.556415557861328]}, {"bufferView" : 0, "byteOffset" : 141636, "componentType" : 5123, "count" : 948, "type" : "SCALAR", "max" : [947], "min" : [0]}, {"bufferView" : 8, "byteOffset" : 0, "componentType" : 5126, "count" : 948, "type" : "VEC3", "max" : [30304, 30308, 30312], "min" : [0, 4, 8]}, {"bufferView" : 8, "byteOffset" : 12, "componentType" : 5126, "count" : 948, "type" : "VEC3", "max" : [30316, 30320, 30324], "min" : [12, 16, 20]}, {"bufferView" : 8, "byteOffset" : 24, "componentType" : 5126, "count" : 948, "type" : "VEC2", "max" : [30328, 30332], "min" : [24, 28]}, {"bufferView" : 0, "byteOffset" : 143532, "componentType" : 5123, "count" : 13824, "type" : "SCALAR", "max" : [13823], "min" : [0]}, {"bufferView" : 9, "byteOffset" : 0, "componentType" : 5126, "count" : 13824, "type" : "VEC3", "max" : [442338.5, 442342.5, 442346.5], "min" : [2.5033369064331055, 6.5033369064331055, 10.503336906433105]}, {"bufferView" : 9, "byteOffset" : 12, "componentType" : 5126, "count" : 13824, "type" : "VEC3", "max" : [442350.5, 442354.5, 442358.5], "min" : [14.503336906433105, 18.503337860107422, 22.503337860107422]}, {"bufferView" : 9, "byteOffset" : 24, "componentType" : 5126, "count" : 13824, "type" : "VEC2", "max" : [442362.5, 442366.5], "min" : [26.503337860107422, 30.503337860107422]}, {"bufferView" : 0, "byteOffset" : 171180, "componentType" : 5123, "count" : 5952, "type" : "SCALAR", "max" : [5951], "min" : [0]}, {"bufferView" : 10, "byteOffset" : 0, "componentType" : 5126, "count" : 5952, "type" : "VEC3", "max" : [190432, 190436, 190440], "min" : [0, 4, 8]}, {"bufferView" : 10, "byteOffset" : 12, "componentType" : 5126, "count" : 5952, "type" : "VEC3", "max" : [190444, 190448, 190452], "min" : [12, 16, 20]}, {"bufferView" : 10, "byteOffset" : 24, "componentType" : 5126, "count" : 5952, "type" : "VEC2", "max" : [190456, 190460], "min" : [24, 28]}], "asset" : {"generator" : "Aspose.3D 20.8", "version" : "2.0"}, "buffers" : [{"uri" : "buffer.bin", "byteLength" : 3112472}], "bufferViews" : [{"buffer" : 0, "byteOffset" : 0, "byteLength" : 183084, "target" : 34963}, {"buffer" : 0, "byteOffset" : 183088, "byteLength" : 184320, "byteStride" : 32, "target" : 34962}, {"buffer" : 0, "byteOffset" : 367412, "byteLength" : 91776, "byteStride" : 32, "target" : 34962}, {"buffer" : 0, "byteOffset" : 459192, "byteLength" : 184320, "byteStride" : 32, "target" : 34962}, {"buffer" : 0, "byteOffset" : 643516, "byteLength" : 1123776, "byteStride" : 32, "target" : 34962}, {"buffer" : 0, "byteOffset" : 1767296, "byteLength" : 92160, "byteStride" : 32, "target" : 34962}, {"buffer" : 0, "byteOffset" : 1859460, "byteLength" : 405504, "byteStride" : 32, "target" : 34962}, {"buffer" : 0, "byteOffset" : 2264968, "byteLength" : 184320, "byteStride" : 32, "target" : 34962}, {"buffer" : 0, "byteOffset" : 2449292, "byteLength" : 30336, "byteStride" : 32, "target" : 34962}, {"buffer" : 0, "byteOffset" : 2479632, "byteLength" : 442368, "byteStride" : 32, "target" : 34962}, {"buffer" : 0, "byteOffset" : 2922004, "byteLength" : 190464, "byteStride" : 32, "target" : 34962}], "materials" : [{"pbrMetallicRoughness" : {"baseColorFactor" : [0.08354263, 0.07490033, 0.0560227, 1], "metallicFactor" : 0, "roughnessFactor" : 0}, "emissiveFactor" : [0, 0, 0], "alphaMode" : "OPAQUE", "doubleSided" : false}, {"pbrMetallicRoughness" : {"baseColorFactor" : [0.5712716, 0.2085121, 0.07873177, 1], "metallicFactor" : 0, "roughnessFactor" : 0}, "emissiveFactor" : [0, 0, 0], "alphaMode" : "OPAQUE", "doubleSided" : false}, {"pbrMetallicRoughness" : {"baseColorFactor" : [0.5712716, 0.2085121, 0.07873177, 1], "metallicFactor" : 0, "roughnessFactor" : 0}, "emissiveFactor" : [0, 0, 0], "alphaMode" : "OPAQUE", "doubleSided" : false}, {"pbrMetallicRoughness" : {"baseColorFactor" : [0.5852782, 0.3124633, 0.1329589, 1], "metallicFactor" : 0, "roughnessFactor" : 0}, "emissiveFactor" : [0, 0, 0], "alphaMode" : "OPAQUE", "doubleSided" : false}, {"pbrMetallicRoughness" : {"baseColorFactor" : [0.5712716, 0.2085121, 0.07873177, 1], "metallicFactor" : 0, "roughnessFactor" : 0}, "emissiveFactor" : [0, 0, 0], "alphaMode" : "OPAQUE", "doubleSided" : false}, {"pbrMetallicRoughness" : {"baseColorFactor" : [0.145141, 0.3874725, 0.2669792, 1], "metallicFactor" : 0, "roughnessFactor" : 0}, "emissiveFactor" : [0, 0, 0], "alphaMode" : "OPAQUE", "doubleSided" : false}, {"pbrMetallicRoughness" : {"baseColorFactor" : [0.145141, 0.3874725, 0.2669792, 1], "metallicFactor" : 0, "roughnessFactor" : 0}, "emissiveFactor" : [0, 0, 0], "alphaMode" : "OPAQUE", "doubleSided" : false}], "meshes" : [{"primitives" : [{"attributes" : {"POSITION" : 1, "NORMAL" : 2, "TEXCOORD_0" : 3}, "indices" : 0, "mode" : 4}, {"attributes" : {"POSITION" : 5, "NORMAL" : 6, "TEXCOORD_0" : 7}, "indices" : 4, "mode" : 4}, {"attributes" : {"POSITION" : 9, "NORMAL" : 10, "TEXCOORD_0" : 11}, "indices" : 8, "mode" : 4}]}, {"primitives" : [{"attributes" : {"POSITION" : 13, "NORMAL" : 14, "TEXCOORD_0" : 15}, "indices" : 12, "material" : 0, "mode" : 4}]}, {"primitives" : [{"attributes" : {"POSITION" : 17, "NORMAL" : 18, "TEXCOORD_0" : 19}, "indices" : 16, "material" : 1, "mode" : 4}]}, {"primitives" : [{"attributes" : {"POSITION" : 21, "NORMAL" : 22, "TEXCOORD_0" : 23}, "indices" : 20, "material" : 2, "mode" : 4}]}, {"primitives" : [{"attributes" : {"POSITION" : 25, "NORMAL" : 26, "TEXCOORD_0" : 27}, "indices" : 24, "material" : 3, "mode" : 4}]}, {"primitives" : [{"attributes" : {"POSITION" : 29, "NORMAL" : 30, "TEXCOORD_0" : 31}, "indices" : 28, "material" : 4, "mode" : 4}]}, {"primitives" : [{"attributes" : {"POSITION" : 33, "NORMAL" : 34, "TEXCOORD_0" : 35}, "indices" : 32, "material" : 5, "mode" : 4}]}, {"primitives" : [{"attributes" : {"POSITION" : 37, "NORMAL" : 38, "TEXCOORD_0" : 39}, "indices" : 36, "material" : 6, "mode" : 4}]}], "nodes" : [{"mesh" : 0, "name" : "ShapeKey Face"}, {"matrix" : [0.1393761, 0, 0, 0, 0, 0.1414427, 0, 0, 0, 0, 0.1280348, 0, 0, 0, 2.086117, 1], "mesh" : 1, "name" : "Hair"}, {"matrix" : [0.06027915, 0, 0, 0, 0, 0.06027915, 0, 0, 0, 0, 0.06027915, 0, 0, -0.5525485, 1.382319, 1], "mesh" : 2, "name" : "Nose new"}, {"matrix" : [0.5151003, 0, 0, 0, 0, 0.5151003, 0, 0, 0, 0, 0.5770472, 0, 0, 0, 1.400861, 1], "mesh" : 3, "name" : "Head"}, {"mesh" : 4, "name" : "Ears"}, {"matrix" : [0.1778462, 0, 0, 0, 0, 0.1778462, 0, 0, 0, 0, 0.1933166, 0, 0, 0, 0.7301871, 1], "mesh" : 5, "name" : "Neck"}, {"matrix" : [0.1011035, 0, 0, 0, 0, 0.1011035, 0, 0, 0, 0, 0.1070551, 0, 0, 0, 0.546062, 1], "mesh" : 6, "name" : "Collar"}, {"mesh" : 7, "name" : "Body"}], "scene" : 0, "scenes" : [{"nodes" : [0, 1, 2, 3, 4, 5, 6, 7]}]}