{
    "asset": {
        "generator": "COLLADA2GLTF",
        "version": "2.0"
    },
    "scenes": [
        {
            "nodes": [
                0
            ]
        }
    ],
    "scene": 0,
    "nodes": [
        {
            "children": [
                7,
                6,
                5,
                4,
                3,
                2,
                1
            ],
            "matrix": [
                1.0,
                0.0,
                0.0,
                0.0,
                0.0,
                0.0,
                -1.0,
                0.0,
                0.0,
                1.0,
                0.0,
                0.0,
                0.0,
                0.0,
                0.0,
                1.0
            ],
            "name": "Z_UP"
        },
        {
            "mesh": 0,
            "name": "Body"
        },
        {
            "mesh": 1,
            "matrix": [
                0.10110349953174593,
                0.0,
                0.0,
                0.0,
                0.0,
                0.10110349953174593,
                0.0,
                0.0,
                0.0,
                0.0,
                0.10705509781837464,
                0.0,
                0.0,
                0.0,
                0.5460619926452637,
                1.0
            ],
            "name": "Collar"
        },
        {
            "mesh": 2,
            "matrix": [
                0.17784620821475984,
                0.0,
                0.0,
                0.0,
                0.0,
                0.17784620821475984,
                0.0,
                0.0,
                0.0,
                0.0,
                0.19331660866737369,
                0.0,
                0.0,
                0.0,
                0.7301871180534363,
                1.0
            ],
            "name": "Neck"
        },
        {
            "mesh": 3,
            "name": "Ears"
        },
        {
            "mesh": 4,
            "matrix": [
                0.5151003003120422,
                0.0,
                0.0,
                0.0,
                0.0,
                0.5151003003120422,
                0.0,
                0.0,
                0.0,
                0.0,
                0.5770472288131714,
                0.0,
                0.0,
                0.0,
                1.4008610248565674,
                1.0
            ],
            "name": "Head"
        },
        {
            "mesh": 5,
            "matrix": [
                0.06027914956212044,
                0.0,
                0.0,
                0.0,
                0.0,
                0.06027914956212044,
                0.0,
                0.0,
                0.0,
                0.0,
                0.06027914956212044,
                0.0,
                0.0,
                -0.5525485277175903,
                1.3823189735412598,
                1.0
            ],
            "name": "Nose new"
        },
        {
            "mesh": 6,
            "matrix": [
                0.13937610387802125,
                0.0,
                0.0,
                0.0,
                0.0,
                0.1414427012205124,
                0.0,
                0.0,
                0.0,
                0.0,
                0.1280348002910614,
                0.0,
                0.0,
                0.0,
                2.0861170291900636,
                1.0
            ],
            "name": "Hair"
        }
    ],
    "meshes": [
        {
            "primitives": [
                {
                    "attributes": {
                        "NORMAL": 1,
                        "POSITION": 2
                    },
                    "indices": 0,
                    "mode": 4,
                    "material": 0
                }
            ],
            "name": "Sphere"
        },
        {
            "primitives": [
                {
                    "attributes": {
                        "NORMAL": 4,
                        "POSITION": 5
                    },
                    "indices": 3,
                    "mode": 4,
                    "material": 0
                }
            ],
            "name": "Torus.001"
        },
        {
            "primitives": [
                {
                    "attributes": {
                        "NORMAL": 7,
                        "POSITION": 8
                    },
                    "indices": 6,
                    "mode": 4,
                    "material": 1
                }
            ],
            "name": "Cylinder"
        },
        {
            "primitives": [
                {
                    "attributes": {
                        "NORMAL": 10,
                        "POSITION": 11
                    },
                    "indices": 9,
                    "mode": 4,
                    "material": 2
                }
            ],
            "name": "Sphere.002"
        },
        {
            "primitives": [
                {
                    "attributes": {
                        "NORMAL": 13,
                        "POSITION": 14
                    },
                    "indices": 12,
                    "mode": 4,
                    "material": 1
                }
            ],
            "name": "Sphere.023"
        },
        {
            "primitives": [
                {
                    "attributes": {
                        "NORMAL": 16,
                        "POSITION": 17
                    },
                    "indices": 15,
                    "mode": 4,
                    "material": 1
                }
            ],
            "name": "Sphere.024"
        },
        {
            "primitives": [
                {
                    "attributes": {
                        "NORMAL": 19,
                        "POSITION": 20
                    },
                    "indices": 18,
                    "mode": 4,
                    "material": 3
                }
            ],
            "name": "Sphere.014"
        }
    ],
    "accessors": [
        {
            "bufferView": 0,
            "byteOffset": 0,
            "componentType": 5123,
            "count": 5952,
            "max": [
                1120
            ],
            "min": [
                0
            ],
            "type": "SCALAR"
        },
        {
            "bufferView": 1,
            "byteOffset": 0,
            "componentType": 5126,
            "count": 1121,
            "max": [
                0.9641749262809752,
                0.9641749262809752,
                1.0
            ],
            "min": [
                -0.9641749262809752,
                -0.9641749262809752,
                0.2652390003204346
            ],
            "type": "VEC3"
        },
        {
            "bufferView": 1,
            "byteOffset": 13452,
            "componentType": 5126,
            "count": 1121,
            "max": [
                0.837770938873291,
                0.8377705216407776,
                0.5597711205482483
            ],
            "min": [
                -0.8377705812454224,
                -0.8377711176872253,
                0.0
            ],
            "type": "VEC3"
        },
        {
            "bufferView": 0,
            "byteOffset": 11904,
            "componentType": 5123,
            "count": 13824,
            "max": [
                2424
            ],
            "min": [
                0
            ],
            "type": "SCALAR"
        },
        {
            "bufferView": 1,
            "byteOffset": 26904,
            "componentType": 5126,
            "count": 2425,
            "max": [
                1.0,
                1.0,
                0.9999964237213136
            ],
            "min": [
                -1.0,
                -1.0,
                -0.9999964237213136
            ],
            "type": "VEC3"
        },
        {
            "bufferView": 1,
            "byteOffset": 56004,
            "componentType": 5126,
            "count": 2425,
            "max": [
                2.5087099075317385,
                2.5087099075317385,
                0.5158845782279968
            ],
            "min": [
                -2.5087099075317385,
                -2.5087099075317385,
                -0.5158845782279968
            ],
            "type": "VEC3"
        },
        {
            "bufferView": 0,
            "byteOffset": 39552,
            "componentType": 5123,
            "count": 948,
            "max": [
                243
            ],
            "min": [
                0
            ],
            "type": "SCALAR"
        },
        {
            "bufferView": 1,
            "byteOffset": 85104,
            "componentType": 5126,
            "count": 244,
            "max": [
                0.9979754090309144,
                0.9979754090309144,
                0.6898725032806397
            ],
            "min": [
                -0.9979754090309144,
                -0.9979754090309144,
                -0.6898725032806397
            ],
            "type": "VEC3"
        },
        {
            "bufferView": 1,
            "byteOffset": 88032,
            "componentType": 5126,
            "count": 244,
            "max": [
                0.9460192918777466,
                0.9460192918777466,
                0.9977428913116456
            ],
            "min": [
                -0.9460192918777466,
                -0.9460192918777466,
                -0.9991881251335144
            ],
            "type": "VEC3"
        },
        {
            "bufferView": 0,
            "byteOffset": 41448,
            "componentType": 5123,
            "count": 5760,
            "max": [
                1117
            ],
            "min": [
                0
            ],
            "type": "SCALAR"
        },
        {
            "bufferView": 1,
            "byteOffset": 90960,
            "componentType": 5126,
            "count": 1118,
            "max": [
                1.0,
                0.9999995231628418,
                0.9956812262535096
            ],
            "min": [
                -1.0,
                -0.9999969005584716,
                -0.9956784248352052
            ],
            "type": "VEC3"
        },
        {
            "bufferView": 1,
            "byteOffset": 104376,
            "componentType": 5126,
            "count": 1118,
            "max": [
                0.6560255289077759,
                0.10593809932470322,
                1.4351340532302857
            ],
            "min": [
                -0.6560255289077759,
                -0.0486336313188076,
                1.219177007675171
            ],
            "type": "VEC3"
        },
        {
            "bufferView": 0,
            "byteOffset": 52968,
            "componentType": 5123,
            "count": 12672,
            "max": [
                2277
            ],
            "min": [
                0
            ],
            "type": "SCALAR"
        },
        {
            "bufferView": 1,
            "byteOffset": 117792,
            "componentType": 5126,
            "count": 2278,
            "max": [
                0.9999585151672364,
                0.9999508857727052,
                0.9999985098838806
            ],
            "min": [
                -0.9999585151672364,
                -0.9999160170555116,
                -0.9999949932098388
            ],
            "type": "VEC3"
        },
        {
            "bufferView": 1,
            "byteOffset": 145128,
            "componentType": 5126,
            "count": 2278,
            "max": [
                0.9864649772644044,
                0.9864130020141602,
                0.9975767135620116
            ],
            "min": [
                -0.9864649772644044,
                -0.9914286136627196,
                -1.1472480297088624
            ],
            "type": "VEC3"
        },
        {
            "bufferView": 0,
            "byteOffset": 78312,
            "componentType": 5123,
            "count": 2880,
            "max": [
                558
            ],
            "min": [
                0
            ],
            "type": "SCALAR"
        },
        {
            "bufferView": 1,
            "byteOffset": 172464,
            "componentType": 5126,
            "count": 559,
            "max": [
                1.0,
                1.0,
                1.0
            ],
            "min": [
                -1.0,
                -1.0,
                -1.0
            ],
            "type": "VEC3"
        },
        {
            "bufferView": 1,
            "byteOffset": 179172,
            "componentType": 5126,
            "count": 559,
            "max": [
                1.0,
                1.0,
                1.0
            ],
            "min": [
                -0.9999998211860656,
                -1.0,
                -1.0
            ],
            "type": "VEC3"
        },
        {
            "bufferView": 0,
            "byteOffset": 84072,
            "componentType": 5123,
            "count": 35118,
            "max": [
                5854
            ],
            "min": [
                0
            ],
            "type": "SCALAR"
        },
        {
            "bufferView": 1,
            "byteOffset": 185880,
            "componentType": 5126,
            "count": 5855,
            "max": [
                0.99998939037323,
                0.999990940093994,
                0.9999629259109496
            ],
            "min": [
                -0.9999794960021972,
                -0.9998799562454224,
                -0.999974489212036
            ],
            "type": "VEC3"
        },
        {
            "bufferView": 1,
            "byteOffset": 256140,
            "componentType": 5126,
            "count": 5855,
            "max": [
                3.733176946640014,
                1.313981056213379,
                1.296234965324402
            ],
            "min": [
                -3.733829975128174,
                -3.070466995239258,
                -5.163224220275879
            ],
            "type": "VEC3"
        }
    ],
    "materials": [
        {
            "pbrMetallicRoughness": {
                "baseColorFactor": [
                    0.14514100551605225,
                    0.3874725103378296,
                    0.2669792175292969,
                    1.0
                ],
                "metallicFactor": 0.0
            },
            "emissiveFactor": [
                0.0,
                0.0,
                0.0
            ],
            "name": "Tshirt-effect"
        },
        {
            "pbrMetallicRoughness": {
                "baseColorFactor": [
                    0.5712715983390808,
                    0.2085120975971222,
                    0.07873176783323288,
                    1.0
                ],
                "metallicFactor": 0.0
            },
            "emissiveFactor": [
                0.0,
                0.0,
                0.0
            ],
            "name": "Face_002-effect"
        },
        {
            "pbrMetallicRoughness": {
                "baseColorFactor": [
                    0.5852782130241394,
                    0.31246331334114077,
                    0.13295890390872956,
                    1.0
                ],
                "metallicFactor": 0.0
            },
            "emissiveFactor": [
                0.0,
                0.0,
                0.0
            ],
            "name": "Face-effect"
        },
        {
            "pbrMetallicRoughness": {
                "baseColorFactor": [
                    0.08354263007640839,
                    0.07490032911300659,
                    0.05602269992232323,
                    1.0
                ],
                "metallicFactor": 0.0
            },
            "emissiveFactor": [
                0.0,
                0.0,
                0.0
            ],
            "name": "Hair-effect"
        }
    ],
    "bufferViews": [
        {
            "buffer": 0,
            "byteOffset": 326400,
            "byteLength": 154308,
            "target": 34963
        },
        {
            "buffer": 0,
            "byteOffset": 0,
            "byteLength": 326400,
            "byteStride": 12,
            "target": 34962
        }
    ],
    "buffers": [
        {
            "byteLength": 480708,
            "uri": "data:application/octet-stream;base64,"
        }
    ]
}
